<?xml version="1.0" encoding="UTF-8" standalone="no"?>
<!-- Created with Inkscape (http://www.inkscape.org/) -->

<svg
   width="3.05531mm"
   height="2.1166699mm"
   viewBox="0 0 3.0553099 2.1166699"
   version="1.1"
   id="svg1"
   xml:space="preserve"
   inkscape:version="1.4 (e7c3feb100, 2024-10-09)"
   sodipodi:docname="1.svg"
   xmlns:inkscape="http://www.inkscape.org/namespaces/inkscape"
   xmlns:sodipodi="http://sodipodi.sourceforge.net/DTD/sodipodi-0.dtd"
   xmlns="http://www.w3.org/2000/svg"
   xmlns:svg="http://www.w3.org/2000/svg"><sodipodi:namedview
     id="namedview1"
     pagecolor="#ffffff"
     bordercolor="#666666"
     borderopacity="1.0"
     inkscape:showpageshadow="2"
     inkscape:pageopacity="0.0"
     inkscape:pagecheckerboard="0"
     inkscape:deskcolor="#d1d1d1"
     inkscape:document-units="mm"
     inkscape:zoom="22.627417"
     inkscape:cx="-1.8119611"
     inkscape:cy="6.0104076"
     inkscape:window-width="1920"
     inkscape:window-height="1064"
     inkscape:window-x="0"
     inkscape:window-y="0"
     inkscape:window-maximized="1"
     inkscape:current-layer="layer1" /><defs
     id="defs1" /><g
     inkscape:label="Ebene 1"
     inkscape:groupmode="layer"
     id="layer1"
     transform="translate(-100.42403,-145.21511)"><path
       id="path194"
       style="fill:#000000;fill-opacity:1;stroke-width:2.7773"
       d="m 100.8945,145.21511 v 0.23524 h 0.23524 v -0.23524 z m 0.23524,0.23524 v 0.23551 h -0.23524 v 0.23524 h -0.23523 v -0.23524 -0.23551 h -0.23524 v 0.23551 0.23524 0.23385 0.23524 0.23523 h 0.23524 v 0.23524 h 0.23523 v 0.23552 h 0.23524 v -0.23552 h 0.23385 0.23524 0.23524 0.23523 0.23524 0.23524 0.23385 v 0.23552 h 0.23524 v -0.23552 h 0.23523 v -0.23524 h 0.23524 v -0.23523 -0.23524 -0.23385 -0.23524 -0.23551 h -0.23524 v 0.23551 0.23524 h -0.23523 v -0.23524 h -0.23524 v -0.23551 h -0.23385 v 0.23551 h -0.23524 -0.23524 -0.23523 -0.23524 -0.23524 v -0.23551 z m 1.64475,0 h 0.23524 v -0.23524 h -0.23524 z m 0.23524,1.64619 v 0.23524 h 0.23523 v -0.23524 z m -2.1155,0 h -0.23524 v 0.23524 h 0.23524 z m 0.23523,-0.94148 h 0.23385 v 0.23524 h -0.23385 z m 1.41082,0 h 0.23385 v 0.23524 h -0.23385 z" /></g></svg>
