<?xml version="1.0" standalone="no"?>
 <!DOCTYPE svg PUBLIC "-//W3C//DTD SVG 1.1//EN" 
 "http://www.w3.org/Graphics/SVG/1.1/DTD/svg11.dtd"> 
<svg
  xmlns:svg="http://www.w3.org/2000/svg"
  xmlns="http://www.w3.org/2000/svg"
  xmlns:xlink="http://www.w3.org/1999/xlink"
  version="1.1"
  width="130.8100mm" height="89.1540mm" viewBox="0.0000 0.0000 130.8100 89.1540">
<title>SVG Image created as space-invader-User_Eco2.svg date 2025/02/15 12:37:56 </title>
  <desc>Image generated by PCBNEW </desc>
<g style="fill:#000000; fill-opacity:1.0000;stroke:#000000; stroke-opacity:1.0000;
stroke-linecap:round; stroke-linejoin:round;"
 transform="translate(0 0) scale(1 1)">
</g>
<g style="fill:none; 
stroke:#D8C852; stroke-width:0.0500; stroke-opacity:1; 
stroke-linecap:round; stroke-linejoin:round;">
<path d="M15.2250 32.3445
L15.2250 19.3445
" />
<path d="M15.7250 18.8445
L28.7250 18.8445
" />
<path d="M28.7250 32.8445
L15.7250 32.8445
" />
<path d="M29.2250 19.3445
L29.2250 32.3445
" />
<path d="M15.7250 18.8445 A0.5000 0.5000 0.0 0 0 15.2250 19.3445" />
<path d="M15.2250 32.3445 A0.5000 0.5000 0.0 0 0 15.7250 32.8445" />
<path d="M29.2250 19.3445 A0.5000 0.5000 0.0 0 0 28.7250 18.8445" />
<path d="M28.7222 32.8434 A0.4999 0.4999 0.0 0 0 29.2222 32.3434" />
<path d="M15.2250 79.9695
L15.2250 66.9695
" />
<path d="M15.7250 66.4695
L28.7250 66.4695
" />
<path d="M28.7250 80.4695
L15.7250 80.4695
" />
<path d="M29.2250 66.9695
L29.2250 79.9695
" />
<path d="M15.7250 66.4695 A0.5000 0.5000 0.0 0 0 15.2250 66.9695" />
<path d="M15.2250 79.9695 A0.5000 0.5000 0.0 0 0 15.7250 80.4695" />
<path d="M29.2250 66.9695 A0.5000 0.5000 0.0 0 0 28.7250 66.4695" />
<path d="M28.7222 80.4684 A0.4999 0.4999 0.0 0 0 29.2222 79.9684" />
<path d="M34.2750 60.9195
L34.2750 47.9195
" />
<path d="M34.7750 47.4195
L47.7750 47.4195
" />
<path d="M47.7750 61.4195
L34.7750 61.4195
" />
<path d="M48.2750 47.9195
L48.2750 60.9195
" />
<path d="M34.7750 47.4195 A0.5000 0.5000 0.0 0 0 34.2750 47.9195" />
<path d="M34.2750 60.9195 A0.5000 0.5000 0.0 0 0 34.7750 61.4195" />
<path d="M48.2750 47.9195 A0.5000 0.5000 0.0 0 0 47.7750 47.4195" />
<path d="M47.7722 61.4184 A0.4999 0.4999 0.0 0 0 48.2722 60.9184" />
<path d="M53.3250 18.0570
L53.3250 5.0570
" />
<path d="M53.8250 4.5570
L66.8250 4.5570
" />
<path d="M66.8250 18.5570
L53.8250 18.5570
" />
<path d="M67.3250 5.0570
L67.3250 18.0570
" />
<path d="M53.8250 4.5570 A0.5000 0.5000 0.0 0 0 53.3250 5.0570" />
<path d="M53.3250 18.0570 A0.5000 0.5000 0.0 0 0 53.8250 18.5570" />
<path d="M67.3250 5.0570 A0.5000 0.5000 0.0 0 0 66.8250 4.5570" />
<path d="M66.8222 18.5559 A0.4999 0.4999 0.0 0 0 67.3222 18.0559" />
<path d="M91.4250 51.3945
L91.4250 38.3945
" />
<path d="M91.9250 37.8945
L104.9250 37.8945
" />
<path d="M104.9250 51.8945
L91.9250 51.8945
" />
<path d="M105.4250 38.3945
L105.4250 51.3945
" />
<path d="M91.9250 37.8945 A0.5000 0.5000 0.0 0 0 91.4250 38.3945" />
<path d="M91.4250 51.3945 A0.5000 0.5000 0.0 0 0 91.9250 51.8945" />
<path d="M105.4250 38.3945 A0.5000 0.5000 0.0 0 0 104.9250 37.8945" />
<path d="M104.9222 51.8934 A0.4999 0.4999 0.0 0 0 105.4222 51.3934" />
<path d="M91.4250 79.9695
L91.4250 66.9695
" />
<path d="M91.9250 66.4695
L104.9250 66.4695
" />
<path d="M104.9250 80.4695
L91.9250 80.4695
" />
<path d="M105.4250 66.9695
L105.4250 79.9695
" />
<path d="M91.9250 66.4695 A0.5000 0.5000 0.0 0 0 91.4250 66.9695" />
<path d="M91.4250 79.9695 A0.5000 0.5000 0.0 0 0 91.9250 80.4695" />
<path d="M105.4250 66.9695 A0.5000 0.5000 0.0 0 0 104.9250 66.4695" />
<path d="M104.9222 80.4684 A0.4999 0.4999 0.0 0 0 105.4222 79.9684" />
<path d="M15.2250 51.3945
L15.2250 38.3945
" />
<path d="M15.7250 37.8945
L28.7250 37.8945
" />
<path d="M28.7250 51.8945
L15.7250 51.8945
" />
<path d="M29.2250 38.3945
L29.2250 51.3945
" />
<path d="M15.7250 37.8945 A0.5000 0.5000 0.0 0 0 15.2250 38.3945" />
<path d="M15.2250 51.3945 A0.5000 0.5000 0.0 0 0 15.7250 51.8945" />
<path d="M29.2250 38.3945 A0.5000 0.5000 0.0 0 0 28.7250 37.8945" />
<path d="M28.7222 51.8934 A0.4999 0.4999 0.0 0 0 29.2222 51.3934" />
<path d="M72.3750 60.9195
L72.3750 47.9195
" />
<path d="M72.8750 47.4195
L85.8750 47.4195
" />
<path d="M85.8750 61.4195
L72.8750 61.4195
" />
<path d="M86.3750 47.9195
L86.3750 60.9195
" />
<path d="M72.8750 47.4195 A0.5000 0.5000 0.0 0 0 72.3750 47.9195" />
<path d="M72.3750 60.9195 A0.5000 0.5000 0.0 0 0 72.8750 61.4195" />
<path d="M86.3750 47.9195 A0.5000 0.5000 0.0 0 0 85.8750 47.4195" />
<path d="M85.8722 61.4184 A0.4999 0.4999 0.0 0 0 86.3722 60.9184" />
<path d="M53.3250 37.1070
L53.3250 24.1070
" />
<path d="M53.8250 23.6070
L66.8250 23.6070
" />
<path d="M66.8250 37.6070
L53.8250 37.6070
" />
<path d="M67.3250 24.1070
L67.3250 37.1070
" />
<path d="M53.8250 23.6070 A0.5000 0.5000 0.0 0 0 53.3250 24.1070" />
<path d="M53.3250 37.1070 A0.5000 0.5000 0.0 0 0 53.8250 37.6070" />
<path d="M67.3250 24.1070 A0.5000 0.5000 0.0 0 0 66.8250 23.6070" />
<path d="M66.8222 37.6059 A0.4999 0.4999 0.0 0 0 67.3222 37.1059" />
<path d="M53.3250 56.1570
L53.3250 43.1570
" />
<path d="M53.8250 42.6570
L66.8250 42.6570
" />
<path d="M66.8250 56.6570
L53.8250 56.6570
" />
<path d="M67.3250 43.1570
L67.3250 56.1570
" />
<path d="M53.8250 42.6570 A0.5000 0.5000 0.0 0 0 53.3250 43.1570" />
<path d="M53.3250 56.1570 A0.5000 0.5000 0.0 0 0 53.8250 56.6570" />
<path d="M67.3250 43.1570 A0.5000 0.5000 0.0 0 0 66.8250 42.6570" />
<path d="M66.8222 56.6559 A0.4999 0.4999 0.0 0 0 67.3222 56.1559" />
<path d="M72.3750 41.8695
L72.3750 28.8695
" />
<path d="M72.8750 28.3695
L85.8750 28.3695
" />
<path d="M85.8750 42.3695
L72.8750 42.3695
" />
<path d="M86.3750 28.8695
L86.3750 41.8695
" />
<path d="M72.8750 28.3695 A0.5000 0.5000 0.0 0 0 72.3750 28.8695" />
<path d="M72.3750 41.8695 A0.5000 0.5000 0.0 0 0 72.8750 42.3695" />
<path d="M86.3750 28.8695 A0.5000 0.5000 0.0 0 0 85.8750 28.3695" />
<path d="M85.8722 42.3684 A0.4999 0.4999 0.0 0 0 86.3722 41.8684" />
<path d="M34.2750 41.8695
L34.2750 28.8695
" />
<path d="M34.7750 28.3695
L47.7750 28.3695
" />
<path d="M47.7750 42.3695
L34.7750 42.3695
" />
<path d="M48.2750 28.8695
L48.2750 41.8695
" />
<path d="M34.7750 28.3695 A0.5000 0.5000 0.0 0 0 34.2750 28.8695" />
<path d="M34.2750 41.8695 A0.5000 0.5000 0.0 0 0 34.7750 42.3695" />
<path d="M48.2750 28.8695 A0.5000 0.5000 0.0 0 0 47.7750 28.3695" />
<path d="M47.7722 42.3684 A0.4999 0.4999 0.0 0 0 48.2722 41.8684" />
<path d="M72.3750 79.9695
L72.3750 66.9695
" />
<path d="M72.8750 66.4695
L85.8750 66.4695
" />
<path d="M85.8750 80.4695
L72.8750 80.4695
" />
<path d="M86.3750 66.9695
L86.3750 79.9695
" />
<path d="M72.8750 66.4695 A0.5000 0.5000 0.0 0 0 72.3750 66.9695" />
<path d="M72.3750 79.9695 A0.5000 0.5000 0.0 0 0 72.8750 80.4695" />
<path d="M86.3750 66.9695 A0.5000 0.5000 0.0 0 0 85.8750 66.4695" />
<path d="M85.8722 80.4684 A0.4999 0.4999 0.0 0 0 86.3722 79.9684" />
<path d="M34.2750 79.9695
L34.2750 66.9695
" />
<path d="M34.7750 66.4695
L47.7750 66.4695
" />
<path d="M47.7750 80.4695
L34.7750 80.4695
" />
<path d="M48.2750 66.9695
L48.2750 79.9695
" />
<path d="M34.7750 66.4695 A0.5000 0.5000 0.0 0 0 34.2750 66.9695" />
<path d="M34.2750 79.9695 A0.5000 0.5000 0.0 0 0 34.7750 80.4695" />
<path d="M48.2750 66.9695 A0.5000 0.5000 0.0 0 0 47.7750 66.4695" />
<path d="M47.7722 80.4684 A0.4999 0.4999 0.0 0 0 48.2722 79.9684" />
<path d="M34.2750 22.8195
L34.2750 9.8195
" />
<path d="M34.7750 9.3195
L47.7750 9.3195
" />
<path d="M47.7750 23.3195
L34.7750 23.3195
" />
<path d="M48.2750 9.8195
L48.2750 22.8195
" />
<path d="M34.7750 9.3195 A0.5000 0.5000 0.0 0 0 34.2750 9.8195" />
<path d="M34.2750 22.8195 A0.5000 0.5000 0.0 0 0 34.7750 23.3195" />
<path d="M48.2750 9.8195 A0.5000 0.5000 0.0 0 0 47.7750 9.3195" />
<path d="M47.7722 23.3184 A0.4999 0.4999 0.0 0 0 48.2722 22.8184" />
<path d="M72.3750 22.8195
L72.3750 9.8195
" />
<path d="M72.8750 9.3195
L85.8750 9.3195
" />
<path d="M85.8750 23.3195
L72.8750 23.3195
" />
<path d="M86.3750 9.8195
L86.3750 22.8195
" />
<path d="M72.8750 9.3195 A0.5000 0.5000 0.0 0 0 72.3750 9.8195" />
<path d="M72.3750 22.8195 A0.5000 0.5000 0.0 0 0 72.8750 23.3195" />
<path d="M86.3750 9.8195 A0.5000 0.5000 0.0 0 0 85.8750 9.3195" />
<path d="M85.8722 23.3184 A0.4999 0.4999 0.0 0 0 86.3722 22.8184" />
<path d="M91.4250 32.3445
L91.4250 19.3445
" />
<path d="M91.9250 18.8445
L104.9250 18.8445
" />
<path d="M104.9250 32.8445
L91.9250 32.8445
" />
<path d="M105.4250 19.3445
L105.4250 32.3445
" />
<path d="M91.9250 18.8445 A0.5000 0.5000 0.0 0 0 91.4250 19.3445" />
<path d="M91.4250 32.3445 A0.5000 0.5000 0.0 0 0 91.9250 32.8445" />
<path d="M105.4250 19.3445 A0.5000 0.5000 0.0 0 0 104.9250 18.8445" />
<path d="M104.9222 32.8434 A0.4999 0.4999 0.0 0 0 105.4222 32.3434" />
<path style="fill:none; 
stroke:#D0D2CD; stroke-width:0.0500; stroke-opacity:1; 
stroke-linecap:round; stroke-linejoin:round;fill:none"
d="M 68.0642,2.0320
68.1554,2.0388
68.2458,2.0500
68.3353,2.0657
68.4238,2.0856
68.5110,2.1098
68.5968,2.1382
68.6811,2.1707
68.7637,2.2073
68.8444,2.2479
68.9232,2.2925
68.9999,2.3409
69.0742,2.3932
69.1461,2.4492
69.2154,2.5089
69.2819,2.5722
69.3453,2.6388
69.4050,2.7081
69.4610,2.7799
69.5132,2.8543
69.5617,2.9309
69.6062,3.0097
69.6468,3.0905
69.6834,3.1731
69.7159,3.2573
69.7443,3.3432
69.7685,3.4304
69.7885,3.5188
69.8041,3.6083
69.8153,3.6988
69.8221,3.7900
69.8244,3.8818
69.8244,4.9402
69.8267,5.0320
69.8335,5.1232
69.8447,5.2137
69.8603,5.3032
69.8803,5.3916
69.9045,5.4788
69.9329,5.5646
69.9654,5.6489
70.0020,5.7315
70.0426,5.8123
70.0871,5.8911
70.1356,5.9677
70.1878,6.0420
70.2438,6.1139
70.3035,6.1832
70.3669,6.2498
70.4334,6.3131
70.5027,6.3728
70.5746,6.4288
70.6489,6.4811
70.7256,6.5295
70.8044,6.5741
70.8851,6.6147
70.9677,6.6513
71.0520,6.6838
71.1378,6.7122
71.2250,6.7364
71.3135,6.7563
71.4030,6.7719
71.4934,6.7832
71.5846,6.7900
71.6765,6.7922
87.0223,6.7922
87.1142,6.7945
87.2054,6.8013
87.2958,6.8125
87.3853,6.8282
87.4738,6.8481
87.5610,6.8723
87.6468,6.9007
87.7311,6.9332
87.8137,6.9698
87.8944,7.0104
87.9732,7.0550
88.0498,7.1034
88.1242,7.1557
88.1961,7.2117
88.2654,7.2714
88.3319,7.3347
88.3953,7.4013
88.4550,7.4705
88.5110,7.5424
88.5632,7.6168
88.6117,7.6934
88.6562,7.7722
88.6968,7.8530
88.7334,7.9356
88.7659,8.0198
88.7943,8.1057
88.8185,8.1929
88.8385,8.2813
88.8541,8.3708
88.8653,8.4613
88.8721,8.5525
88.8744,8.6443
88.8744,14.4652
88.8768,14.5605
88.8840,14.6545
88.8957,14.7472
88.9120,14.8384
88.9327,14.9280
88.9577,15.0159
88.9868,15.1020
89.0200,15.1861
89.0570,15.2681
89.0979,15.3480
89.1425,15.4255
89.1907,15.5007
89.2424,15.5733
89.2973,15.6433
89.3555,15.7105
89.4169,15.7748
89.4812,15.8361
89.5484,15.8943
89.6184,15.9493
89.6910,16.0009
89.7661,16.0491
89.8437,16.0937
89.9235,16.1346
90.0056,16.1717
90.0897,16.2049
90.1757,16.2340
90.2636,16.2589
90.3532,16.2796
90.4444,16.2959
90.5371,16.3077
90.6312,16.3148
90.7265,16.3172
106.0723,16.3172
106.1676,16.3196
106.2617,16.3268
106.3544,16.3386
106.4456,16.3549
106.5352,16.3755
106.6231,16.4005
106.7091,16.4296
106.7932,16.4628
106.8753,16.4999
106.9551,16.5408
107.0327,16.5854
107.1078,16.6335
107.1805,16.6852
107.2504,16.7402
107.3176,16.7984
107.3819,16.8597
107.4433,16.9240
107.5015,16.9912
107.5565,17.0612
107.6081,17.1338
107.6563,17.2090
107.7009,17.2865
107.7418,17.3664
107.7789,17.4484
107.8120,17.5325
107.8411,17.6186
107.8661,17.7065
107.8868,17.7961
107.9031,17.8873
107.9148,17.9800
107.9220,18.0740
107.9244,18.1693
107.9244,52.5652
107.9220,52.6605
107.9148,52.7545
107.9031,52.8472
107.8868,52.9384
107.8661,53.0280
107.8411,53.1159
107.8120,53.2020
107.7789,53.2861
107.7418,53.3681
107.7009,53.4480
107.6563,53.5255
107.6081,53.6007
107.5565,53.6733
107.5015,53.7433
107.4433,53.8105
107.3819,53.8748
107.3176,53.9361
107.2504,53.9943
107.1805,54.0493
107.1078,54.1009
107.0327,54.1491
106.9551,54.1937
106.8753,54.2346
106.7932,54.2717
106.7091,54.3049
106.6231,54.3340
106.5352,54.3589
106.4456,54.3796
106.3544,54.3959
106.2617,54.4077
106.1676,54.4148
106.0723,54.4172
90.7265,54.4172
90.6312,54.4196
90.5371,54.4268
90.4444,54.4386
90.3532,54.4549
90.2636,54.4755
90.1757,54.5005
90.0897,54.5296
90.0056,54.5628
89.9235,54.5999
89.8437,54.6408
89.7661,54.6854
89.6910,54.7335
89.6184,54.7852
89.5484,54.8402
89.4812,54.8984
89.4169,54.9597
89.3555,55.0240
89.2973,55.0912
89.2424,55.1612
89.1907,55.2338
89.1425,55.3090
89.0979,55.3865
89.0570,55.4664
89.0200,55.5484
88.9868,55.6325
88.9577,55.7186
88.9327,55.8065
88.9120,55.8961
88.8957,55.9873
88.8840,56.0800
88.8768,56.1740
88.8744,56.2693
88.8744,62.0902
88.8768,62.1855
88.8840,62.2795
88.8957,62.3722
88.9120,62.4634
88.9327,62.5530
88.9577,62.6409
88.9868,62.7270
89.0200,62.8111
89.0570,62.8931
89.0979,62.9730
89.1425,63.0505
89.1907,63.1257
89.2424,63.1983
89.2973,63.2683
89.3555,63.3355
89.4169,63.3998
89.4812,63.4611
89.5484,63.5193
89.6184,63.5743
89.6910,63.6259
89.7661,63.6741
89.8437,63.7187
89.9235,63.7596
90.0056,63.7967
90.0897,63.8299
90.1757,63.8590
90.2636,63.8839
90.3532,63.9046
90.4444,63.9209
90.5371,63.9327
90.6312,63.9398
90.7265,63.9422
106.0723,63.9422
106.1676,63.9446
106.2617,63.9518
106.3544,63.9636
106.4456,63.9799
106.5352,64.0005
106.6231,64.0255
106.7091,64.0546
106.7932,64.0878
106.8753,64.1249
106.9551,64.1658
107.0327,64.2104
107.1078,64.2585
107.1805,64.3102
107.2504,64.3652
107.3176,64.4234
107.3819,64.4847
107.4433,64.5490
107.5015,64.6162
107.5565,64.6862
107.6081,64.7588
107.6563,64.8339
107.7009,64.9115
107.7418,64.9914
107.7789,65.0734
107.8120,65.1575
107.8411,65.2436
107.8661,65.3315
107.8868,65.4211
107.9031,65.5123
107.9148,65.6050
107.9220,65.6990
107.9244,65.7943
107.9244,81.1402
107.9220,81.2355
107.9148,81.3295
107.9031,81.4222
107.8868,81.5134
107.8661,81.6030
107.8411,81.6909
107.8120,81.7770
107.7789,81.8611
107.7418,81.9431
107.7009,82.0230
107.6563,82.1005
107.6081,82.1757
107.5565,82.2483
107.5015,82.3183
107.4433,82.3855
107.3819,82.4498
107.3176,82.5111
107.2504,82.5693
107.1805,82.6243
107.1078,82.6759
107.0327,82.7241
106.9551,82.7687
106.8753,82.8096
106.7932,82.8467
106.7091,82.8799
106.6231,82.9090
106.5352,82.9339
106.4456,82.9546
106.3544,82.9709
106.2617,82.9827
106.1676,82.9898
106.0723,82.9923
69.8907,82.9923
69.7988,82.9901
69.7076,82.9833
69.6172,82.9720
69.5277,82.9564
69.4392,82.9365
69.3520,82.9123
69.2662,82.8839
69.1819,82.8514
69.0993,82.8148
69.0186,82.7741
68.9398,82.7296
68.8631,82.6812
68.7888,82.6289
68.7169,82.5729
68.6476,82.5132
68.5811,82.4499
68.5177,82.3833
68.4580,82.3140
68.4020,82.2421
68.3498,82.1678
68.3013,82.0912
68.2568,82.0124
68.2162,81.9316
68.1796,81.8490
68.1471,81.7647
68.1187,81.6789
68.0945,81.5917
68.0745,81.5033
68.0589,81.4138
68.0477,81.3233
68.0409,81.2321
68.0386,81.1403
68.0386,62.2225
68.0362,62.1272
68.0290,62.0332
68.0173,61.9405
68.0010,61.8493
67.9803,61.7597
67.9553,61.6718
67.9262,61.5857
67.8931,61.5016
67.8560,61.4196
67.8151,61.3397
67.7705,61.2622
67.7223,61.1870
67.6707,61.1144
67.6157,61.0444
67.5575,60.9772
67.4961,60.9129
67.4318,60.8516
67.3646,60.7934
67.2947,60.7384
67.2220,60.6868
67.1469,60.6386
67.0693,60.5940
66.9895,60.5531
66.9074,60.5160
66.8233,60.4828
66.7373,60.4537
66.6494,60.4288
66.5598,60.4081
66.4686,60.3918
66.3759,60.3800
66.2818,60.3729
66.1865,60.3704
54.4125,60.3704
54.3206,60.3727
54.2294,60.3795
54.1390,60.3907
54.0495,60.4064
53.9610,60.4263
53.8738,60.4505
53.7880,60.4789
53.7037,60.5114
53.6211,60.5480
53.5404,60.5886
53.4616,60.6332
53.3849,60.6816
53.3106,60.7339
53.2387,60.7899
53.1694,60.8496
53.1029,60.9129
53.0395,60.9795
52.9798,61.0488
52.9238,61.1206
52.8716,61.1950
52.8231,61.2716
52.7786,61.3504
52.7380,61.4312
52.7014,61.5138
52.6689,61.5981
52.6405,61.6839
52.6163,61.7711
52.5963,61.8595
52.5807,61.9490
52.5695,62.0395
52.5627,62.1307
52.5604,62.2225
52.5604,81.1403
52.5598,81.2305
52.5548,81.3202
52.5453,81.4092
52.5316,81.4974
52.5136,81.5846
52.4914,81.6707
52.4650,81.7555
52.4346,81.8389
52.4001,81.9207
52.3617,82.0007
52.3193,82.0789
52.2731,82.1550
52.2231,82.2289
52.1694,82.3005
52.1120,82.3697
52.0510,82.4362
51.9867,82.4995
51.9197,82.5594
51.8501,82.6157
51.7780,82.6683
51.7036,82.7173
51.6271,82.7624
51.5485,82.8038
51.4680,82.8412
51.3858,82.8746
51.3020,82.9040
51.2168,82.9293
51.1303,82.9505
51.0427,82.9674
50.9540,82.9801
50.8646,82.9884
50.7744,82.9922
14.5265,82.9922
14.4312,82.9898
14.3371,82.9827
14.2444,82.9709
14.1532,82.9546
14.0636,82.9339
13.9757,82.9090
13.8897,82.8799
13.8056,82.8467
13.7235,82.8096
13.6437,82.7687
13.5661,82.7241
13.4910,82.6759
13.4184,82.6243
13.3484,82.5693
13.2812,82.5111
13.2169,82.4498
13.1555,82.3855
13.0973,82.3183
13.0423,82.2483
12.9907,82.1757
12.9425,82.1005
12.8979,82.0230
12.8570,81.9431
12.8199,81.8611
12.7868,81.7770
12.7577,81.6909
12.7327,81.6030
12.7120,81.5134
12.6957,81.4222
12.6840,81.3295
12.6768,81.2355
12.6744,81.1402
12.6744,65.7943
12.6767,65.7025
12.6835,65.6113
12.6947,65.5208
12.7103,65.4313
12.7303,65.3429
12.7545,65.2557
12.7829,65.1699
12.8154,65.0856
12.8520,65.0030
12.8926,64.9222
12.9371,64.8434
12.9856,64.7668
13.0378,64.6924
13.0938,64.6206
13.1535,64.5513
13.2169,64.4847
13.2834,64.4214
13.3527,64.3617
13.4246,64.3057
13.4989,64.2534
13.5756,64.2050
13.6544,64.1604
13.7351,64.1198
13.8177,64.0832
13.9020,64.0507
13.9878,64.0223
14.0750,63.9981
14.1635,63.9782
14.2530,63.9625
14.3434,63.9513
14.4346,63.9445
14.5265,63.9422
29.8723,63.9422
29.9676,63.9398
30.0617,63.9327
30.1544,63.9209
30.2456,63.9046
30.3352,63.8839
30.4231,63.8590
30.5091,63.8299
30.5932,63.7967
30.6753,63.7596
30.7551,63.7187
30.8327,63.6741
30.9078,63.6259
30.9804,63.5743
31.0504,63.5193
31.1176,63.4611
31.1819,63.3998
31.2433,63.3355
31.3015,63.2683
31.3565,63.1983
31.4081,63.1257
31.4563,63.0505
31.5009,62.9730
31.5418,62.8931
31.5789,62.8111
31.6120,62.7270
31.6411,62.6409
31.6661,62.5530
31.6868,62.4634
31.7031,62.3722
31.7148,62.2795
31.7220,62.1855
31.7244,62.0902
31.7244,56.2693
31.7221,56.1775
31.7153,56.0863
31.7041,55.9958
31.6885,55.9063
31.6685,55.8179
31.6443,55.7307
31.6160,55.6448
31.5834,55.5606
31.5468,55.4780
31.5062,55.3972
31.4617,55.3184
31.4132,55.2418
31.3610,55.1674
31.3050,55.0956
31.2453,55.0263
31.1819,54.9597
31.1154,54.8964
31.0461,54.8367
30.9742,54.7807
30.8999,54.7284
30.8232,54.6800
30.7445,54.6354
30.6637,54.5948
30.5811,54.5582
30.4968,54.5257
30.4110,54.4973
30.3238,54.4731
30.2353,54.4532
30.1458,54.4375
30.0554,54.4263
29.9642,54.4195
29.8723,54.4172
14.5265,54.4172
14.4312,54.4148
14.3371,54.4077
14.2444,54.3959
14.1532,54.3796
14.0636,54.3589
13.9757,54.3340
13.8897,54.3049
13.8056,54.2717
13.7235,54.2346
13.6437,54.1937
13.5661,54.1491
13.4910,54.1009
13.4184,54.0493
13.3484,53.9943
13.2812,53.9361
13.2169,53.8748
13.1555,53.8105
13.0973,53.7433
13.0423,53.6733
12.9907,53.6007
12.9425,53.5255
12.8979,53.4480
12.8570,53.3681
12.8199,53.2861
12.7868,53.2020
12.7577,53.1159
12.7327,53.0280
12.7120,52.9384
12.6957,52.8472
12.6840,52.7545
12.6768,52.6605
12.6744,52.5652
12.6744,18.1693
12.6768,18.0740
12.6840,17.9800
12.6957,17.8873
12.7120,17.7961
12.7327,17.7065
12.7577,17.6186
12.7868,17.5325
12.8199,17.4484
12.8570,17.3664
12.8979,17.2865
12.9425,17.2089
12.9907,17.1338
13.0423,17.0612
13.0973,16.9912
13.1555,16.9240
13.2169,16.8597
13.2812,16.7984
13.3484,16.7402
13.4184,16.6852
13.4910,16.6335
13.5661,16.5854
13.6437,16.5408
13.7235,16.4999
13.8056,16.4628
13.8897,16.4296
13.9757,16.4005
14.0636,16.3755
14.1532,16.3549
14.2444,16.3386
14.3371,16.3268
14.4312,16.3196
14.5265,16.3172
29.8723,16.3172
29.9676,16.3148
30.0617,16.3077
30.1544,16.2959
30.2456,16.2796
30.3352,16.2589
30.4231,16.2340
30.5091,16.2049
30.5932,16.1717
30.6753,16.1346
30.7551,16.0937
30.8327,16.0491
30.9078,16.0009
30.9805,15.9493
31.0504,15.8943
31.1176,15.8361
31.1819,15.7748
31.2433,15.7105
31.3015,15.6433
31.3565,15.5733
31.4081,15.5007
31.4563,15.4255
31.5009,15.3480
31.5418,15.2681
31.5789,15.1861
31.6120,15.1020
31.6411,15.0159
31.6661,14.9280
31.6868,14.8384
31.7031,14.7472
31.7148,14.6545
31.7220,14.5605
31.7244,14.4652
31.7244,8.6443
31.7268,8.5490
31.7340,8.4550
31.7457,8.3623
31.7620,8.2711
31.7827,8.1815
31.8077,8.0936
31.8368,8.0075
31.8699,7.9234
31.9070,7.8414
31.9479,7.7615
31.9925,7.6840
32.0407,7.6088
32.0923,7.5362
32.1473,7.4662
32.2055,7.3990
32.2669,7.3347
32.3312,7.2734
32.3984,7.2152
32.4684,7.1602
32.5410,7.1085
32.6161,7.0604
32.6937,7.0158
32.7735,6.9749
32.8556,6.9378
32.9397,6.9046
33.0257,6.8755
33.1136,6.8505
33.2032,6.8299
33.2944,6.8136
33.3871,6.8018
33.4812,6.7946
33.5765,6.7922
48.9223,6.7922
49.0176,6.7898
49.1117,6.7827
49.2044,6.7709
49.2956,6.7546
49.3852,6.7339
49.4731,6.7090
49.5591,6.6799
49.6432,6.6467
49.7253,6.6096
49.8051,6.5687
49.8827,6.5241
49.9578,6.4759
50.0305,6.4243
50.1004,6.3693
50.1676,6.3111
50.2319,6.2498
50.2933,6.1855
50.3515,6.1183
50.4065,6.0483
50.4581,5.9757
50.5063,5.9005
50.5509,5.8230
50.5918,5.7431
50.6289,5.6611
50.6620,5.5770
50.6911,5.4909
50.7161,5.4030
50.7368,5.3134
50.7531,5.2222
50.7648,5.1295
50.7720,5.0355
50.7744,4.9402
50.7744,3.8818
50.7768,3.7865
50.7840,3.6925
50.7957,3.5998
50.8120,3.5086
50.8327,3.4190
50.8577,3.3311
50.8868,3.2450
50.9199,3.1609
50.9570,3.0789
50.9979,2.9990
51.0425,2.9215
51.0907,2.8463
51.1423,2.7737
51.1973,2.7037
51.2555,2.6365
51.3169,2.5722
51.3812,2.5109
51.4484,2.4527
51.5183,2.3977
51.5910,2.3460
51.6661,2.2979
51.7437,2.2533
51.8235,2.2124
51.9056,2.1753
51.9897,2.1421
52.0757,2.1130
52.1636,2.0880
52.2532,2.0674
52.3444,2.0511
52.4371,2.0393
52.5312,2.0322
52.6265,2.0297
67.9723,2.0297
Z" /> 
</g> 
</svg>
