<?xml version="1.0" standalone="no"?>
 <!DOCTYPE svg PUBLIC "-//W3C//DTD SVG 1.1//EN" 
 "http://www.w3.org/Graphics/SVG/1.1/DTD/svg11.dtd"> 
<svg
  xmlns:svg="http://www.w3.org/2000/svg"
  xmlns="http://www.w3.org/2000/svg"
  xmlns:xlink="http://www.w3.org/1999/xlink"
  version="1.1"
  width="95.3516mm" height="81.0768mm" viewBox="0.0000 0.0000 95.3516 81.0768">
<title>SVG Image created as space-invader-Edge_Cuts.svg date 2025/01/29 20:30:24 </title>
  <desc>Image generated by PCBNEW </desc>
<g style="fill:#000000; fill-opacity:1.0000;stroke:#000000; stroke-opacity:1.0000;
stroke-linecap:round; stroke-linejoin:round;"
 transform="translate(0 0) scale(1 1)">
<path style="fill:none; 
stroke:#D0D2CD; stroke-width:0.0500; stroke-opacity:1; 
stroke-linecap:round; stroke-linejoin:round;fill:none"
d="M 57.2100,4.8225
76.2600,4.8225
76.2600,14.3475
95.3100,14.3475
95.3100,52.4475
76.2600,52.4475
76.2600,61.9725
95.3100,61.9725
95.3100,81.0225
55.4242,81.0226
55.4242,58.4007
39.9460,58.4007
39.9460,81.0226
38.1600,81.0225
0.0600,81.0225
0.0600,61.9725
19.1100,61.9725
19.1100,52.4475
0.0600,52.4475
0.0600,14.3475
19.1100,14.3475
19.1100,4.8225
38.1600,4.8225
38.1600,0.0600
57.2100,0.0600
Z" /> 
<path style="fill:none; 
stroke:#D0D2CD; stroke-width:0.0500; stroke-opacity:1; 
stroke-linecap:round; stroke-linejoin:round;fill:none"
d="M 57.2100,4.8225
76.2600,4.8225
76.2600,14.3475
95.3100,14.3475
95.3100,52.4475
76.2600,52.4475
76.2600,61.9725
95.3100,61.9725
95.3100,81.0225
55.4242,81.0226
55.4242,58.4007
39.9460,58.4007
39.9460,81.0226
38.1600,81.0225
0.0600,81.0225
0.0600,61.9725
19.1100,61.9725
19.1100,52.4475
0.0600,52.4475
0.0600,14.3475
19.1100,14.3475
19.1100,4.8225
38.1600,4.8225
38.1600,0.0600
57.2100,0.0600
Z" /> 
</g> 
</svg>
