<?xml version="1.0" encoding="UTF-8" standalone="no"?>
<svg
   version="1.1"
   width="95.3516mm"
   height="81.0768mm"
   viewBox="0.0000 0.0000 95.3516 81.0768"
   id="svg2"
   xmlns="http://www.w3.org/2000/svg"
   xmlns:svg="http://www.w3.org/2000/svg"
   xmlns:rdf="http://www.w3.org/1999/02/22-rdf-syntax-ns#"
   xmlns:cc="http://creativecommons.org/ns#"
   xmlns:dc="http://purl.org/dc/elements/1.1/">
  <defs
     id="defs2" />
  <title
     id="title1">SVG Image created as space-invader-Edge_Cuts.svg date 2025/01/29 20:30:24 </title>
  <desc
     id="desc1">Image generated by PCBNEW </desc>
  <path
     style="fill:none;fill-opacity:1;stroke:#d0d2cd;stroke-width:0.05;stroke-linecap:round;stroke-linejoin:round;stroke-opacity:1"
     d="M 59.062083,4.8225 H 74.407917 A 1.8520833,1.8520833 45 0 1 76.26,6.6745833 V 12.495417 A 1.8520833,1.8520833 45 0 0 78.112083,14.3475 H 93.457917 A 1.8520833,1.8520833 45 0 1 95.31,16.199583 l 0,34.395834 A 1.8520833,1.8520833 135 0 1 93.457917,52.4475 H 78.112083 A 1.8520833,1.8520833 135 0 0 76.26,54.299583 v 5.820834 A 1.8520833,1.8520833 45 0 0 78.112083,61.9725 H 93.457917 A 1.8520833,1.8520833 45 0 1 95.31,63.824583 v 15.345834 a 1.8520879,1.8520879 134.99993 0 1 -1.852083,1.852088 l -36.181634,9e-5 A 1.8520787,1.8520787 44.999928 0 1 55.4242,79.170517 V 60.252783 A 1.8520833,1.8520833 45 0 0 53.572117,58.4007 H 41.798083 A 1.8520833,1.8520833 135 0 0 39.946,60.252783 V 79.170517 A 1.8192399,1.8192399 133.96092 0 1 38.16,81.0225 H 1.9120833 A 1.8520833,1.8520833 45 0 1 0.06,79.170417 l 0,-15.345834 A 1.8520833,1.8520833 135 0 1 1.9120833,61.9725 H 17.257917 A 1.8520833,1.8520833 135 0 0 19.11,60.120417 V 54.299583 A 1.8520833,1.8520833 45 0 0 17.257917,52.4475 l -15.3458337,0 A 1.8520833,1.8520833 45 0 1 0.06,50.595417 l 0,-34.395834 A 1.8520833,1.8520833 135 0 1 1.9120833,14.3475 l 15.3458337,0 A 1.8520833,1.8520833 135 0 0 19.11,12.495417 V 6.6745833 A 1.8520833,1.8520833 135 0 1 20.962083,4.8225 H 36.307917 A 1.8520833,1.8520833 135 0 0 38.16,2.9704167 V 1.9120833 A 1.8520833,1.8520833 135 0 1 40.012083,0.06 l 15.345834,0 A 1.8520833,1.8520833 45 0 1 57.21,1.9120833 l 0,1.0583334 A 1.8520833,1.8520833 45 0 0 59.062083,4.8225 Z"
     id="path1" />
  <metadata
     id="metadata2">
    <rdf:RDF>
      <cc:Work
         rdf:about="">
        <dc:title>SVG Image created as space-invader-Edge_Cuts.svg date 2025/01/29 20:30:24 </dc:title>
      </cc:Work>
    </rdf:RDF>
  </metadata>
</svg>
